<svg  xmlns="http://www.w3.org/2000/svg" version="1.1" xmlns:xlink="http://www.w3.org/1999/xlink" xmlns:svgjs="http://svgjs.dev/svgjs" width="2000" height="1500" viewBox="0 0 2000 1500"><rect width="2000" height="1500" fill="#edbbba"></rect><g transform="matrix(0.75,0,0,0.75,249.090909090909,556.2959630165132)"><svg viewBox="0 0 396 102" data-background-color="#edbbba" preserveAspectRatio="xMidYMid meet" height="515" width="2000" xmlns="http://www.w3.org/2000/svg" xmlns:xlink="http://www.w3.org/1999/xlink"><g id="tight-bounds" transform="matrix(1,0,0,1,0.2400000000000091,0.15291073738680439)"><svg viewBox="0 0 395.52 101.69417852522638" height="101.69417852522638" width="395.52"><g><svg viewBox="0 0 395.52 101.69417852522638" height="101.69417852522638" width="395.52"><g><svg viewBox="0 0 395.52 101.69417852522638" height="101.69417852522638" width="395.52"><g id="textblocktransform"><svg viewBox="0 0 395.52 101.69417852522638" height="101.69417852522638" width="395.52" id="textblock"><g><svg viewBox="0 0 395.52 101.69417852522638" height="101.69417852522638" width="395.52"><g transform="matrix(1,0,0,1,0,0)"><svg width="395.52" viewBox="0.1 -38.1 157.54 39.75" height="101.69417852522638" data-palette-color="#374151"><g class="wordmark-text-0" data-fill-palette-color="primary" id="logothing"><path d="M0.1-36.25L5.5-36.25Q5.85-35.4 6.65-33.48 7.45-31.55 8.47-29.1 9.5-26.65 10.63-23.9 11.75-21.15 12.75-18.7 13.75-16.25 14.55-14.33 15.35-12.4 15.7-11.55L15.7-11.55Q15.75-11.45 15.95-10.85 16.15-10.25 16.25-9.8L16.25-9.8 16.75-11.55Q17.1-12.4 17.9-14.33 18.7-16.25 19.7-18.7 20.7-21.15 21.83-23.9 22.95-26.65 23.98-29.1 25-31.55 25.8-33.48 26.6-35.4 26.95-36.25L26.95-36.25 32.35-36.25Q32.05-35.55 31.28-33.73 30.5-31.9 29.4-29.3 28.3-26.7 26.98-23.6 25.65-20.5 24.28-17.3 22.9-14.1 21.58-11 20.25-7.9 19.18-5.3 18.1-2.7 17.32-0.88 16.55 0.95 16.25 1.65L16.25 1.65 0.1-36.25ZM64.75 0L59.35 0Q59.1-0.55 58.65-1.6 58.2-2.65 57.62-4.03 57.05-5.4 56.37-7.03 55.7-8.65 55-10.4L55-10.4 42.2-10.4 37.9 0 32.5 0 48.65-37.95Q48.95-37.25 49.72-35.4 50.5-33.55 51.57-30.98 52.65-28.4 53.97-25.28 55.3-22.15 56.67-18.95 58.05-15.75 59.37-12.65 60.7-9.55 61.8-6.95 62.9-4.35 63.67-2.53 64.45-0.7 64.75 0L64.75 0ZM48.1-24.7L44.1-15 53.15-15Q52.45-16.65 51.82-18.18 51.2-19.7 50.67-20.98 50.15-22.25 49.75-23.2 49.35-24.15 49.15-24.7L49.15-24.7Q49.1-24.8 48.92-25.4 48.75-26 48.65-26.5L48.65-26.5Q48.55-26 48.35-25.4 48.15-24.8 48.1-24.7L48.1-24.7ZM74.75 0L69.25 0 69.25-36.25 79.15-36.25Q82-36.25 84.37-35.5 86.75-34.75 88.47-33.27 90.2-31.8 91.15-29.68 92.1-27.55 92.1-24.8L92.1-24.8Q92.1-23.3 91.8-21.83 91.5-20.35 90.82-18.98 90.15-17.6 89.1-16.43 88.05-15.25 86.55-14.45L86.55-14.45Q88.55-11.3 90.9-7.48 93.25-3.65 95.65 0L95.65 0 89.1 0Q88.1-1.55 87.02-3.25 85.95-4.95 84.87-6.63 83.8-8.3 82.77-9.93 81.75-11.55 80.85-12.95L80.85-12.95 79.85-12.95 74.75-12.95 74.75 0ZM74.75-31.15L74.75-18.1 79.7-18.1Q81.7-18.1 83.05-18.78 84.4-19.45 85.17-20.45 85.95-21.45 86.27-22.6 86.6-23.75 86.6-24.7L86.6-24.7Q86.6-25.65 86.27-26.78 85.95-27.9 85.15-28.88 84.35-29.85 83.02-30.5 81.7-31.15 79.75-31.15L79.75-31.15 74.75-31.15ZM125.14 0L100.64 0 100.64-36.25 124.44-36.25 124.44-31.3 106.14-31.3 106.14-20.7 122.44-20.7 122.44-15.65 106.14-15.65 106.14-5.05 125.14-5.05 125.14 0ZM135.74-36.25L135.74-36.25 157.19-36.25 136.59-5.25 157.64-5.25 157.64 0 127.09 0Q127.59-0.65 128.64-2.25 129.69-3.85 131.09-6.03 132.49-8.2 134.17-10.8 135.84-13.4 137.59-16.07 139.34-18.75 141.02-21.35 142.69-23.95 144.09-26.1 145.49-28.25 146.54-29.8 147.59-31.35 148.09-32L148.09-32 133.59-32Q132.79-32 132.02-32.23 131.24-32.45 130.64-32.85 130.04-33.25 129.67-33.85 129.29-34.45 129.29-35.2L129.29-35.2 129.29-38.1 134.19-38.1 134.19-37.4Q134.19-36.5 134.54-36.38 134.89-36.25 135.74-36.25Z" fill="#374151" data-fill-palette-color="primary"></path></g></svg></g></svg></g></svg></g></svg></g><g></g></svg></g><defs></defs></svg><rect width="395.52" height="101.69417852522638" fill="none" stroke="none" visibility="hidden"></rect></g></svg></g></svg>